<?xml version="1.0" standalone="no"?><!DOCTYPE svg PUBLIC "-//W3C//DTD SVG 1.1//EN" "http://www.w3.org/Graphics/SVG/1.1/DTD/svg11.dtd"><svg t="1496635050454" class="icon" style="" viewBox="0 0 1024 1024" version="1.1" xmlns="http://www.w3.org/2000/svg" p-id="1001" xmlns:xlink="http://www.w3.org/1999/xlink" width="200" height="200"><defs><style type="text/css"></style></defs><path d="M994.816 901.76H923.11v-417.1a54.042 54.042 0 0 0-53.964-53.991h-700.16a54.042 54.042 0 0 0-53.965 53.99V901.76H29.414a29.286 29.286 0 0 0 0 58.65h965.428a29.338 29.338 0 0 0-0.026-58.65z m-132.275 0H175.59V626.74c3.353 6.143 6.783 13.106 10.419 20.607 17.05 35.149 38.22 79.002 85.888 79.002 47.718 0 68.864-43.853 85.888-78.9 13.85-28.646 24.678-48.844 37.76-48.844 13.056 0 23.884 20.198 37.708 48.742 16.948 35.149 38.17 79.002 85.837 79.002 47.719 0 68.915-43.853 85.965-79.002 13.824-28.544 24.653-48.742 37.786-48.742 13.107 0 23.936 20.198 37.785 48.845 17.05 35.148 38.247 78.899 86.016 78.899 47.693 0 68.89-43.853 85.965-79.002 3.43-7.142 6.707-13.747 9.907-19.66V901.76h0.026z m0-350.515c-29.005 13.005-44.8 45.542-58.138 73.011-13.85 28.646-24.653 48.794-37.785 48.794s-23.988-20.148-37.837-48.794c-16.999-35.149-38.221-78.9-85.94-78.9-47.743 0-68.94 43.751-85.887 78.9-13.876 28.646-24.602 48.794-37.863 48.794-13.081 0-23.833-20.148-37.683-48.794-17.024-35.149-38.144-78.9-85.862-78.9-47.668 0-68.864 43.751-85.888 78.9-13.85 28.646-24.73 48.794-37.76 48.794-13.133 0-23.885-20.148-37.735-48.794-13.337-27.546-29.337-60.442-58.598-73.293v-53.811H862.49v54.093h0.05zM320.973 140.646c14.31 0 25.958-11.545 25.958-25.907V89.55a25.984 25.984 0 0 0-51.968 0v25.19a25.984 25.984 0 0 0 26.01 25.907z m0 42.445c-12.595 0-22.81 10.24-22.81 22.759v192a22.758 22.758 0 1 0 45.543 0v-192a22.81 22.81 0 0 0-22.733-22.759z m192.41-42.445c14.284 0 25.932-11.545 25.932-25.907V89.55a25.984 25.984 0 0 0-51.917 0v25.19c0 14.362 11.623 25.907 25.984 25.907z m0 42.445c-12.596 0-22.81 10.24-22.81 22.759v192a22.758 22.758 0 1 0 45.542 0v-192a22.784 22.784 0 0 0-22.733-22.759z m192.358-42.445c14.31 0 25.933-11.545 25.933-25.907V89.55a25.958 25.958 0 0 0-51.943 0v25.19a25.984 25.984 0 0 0 26.01 25.907z m0 42.445c-12.595 0-22.81 10.24-22.81 22.759v192a22.758 22.758 0 1 0 45.543 0v-192a22.784 22.784 0 0 0-22.733-22.759z" p-id="1002" fill="#ffffff"></path></svg>