<?xml version="1.0" standalone="no"?><!DOCTYPE svg PUBLIC "-//W3C//DTD SVG 1.1//EN" "http://www.w3.org/Graphics/SVG/1.1/DTD/svg11.dtd"><svg t="1497159307410" class="icon" style="" viewBox="0 0 1024 1024" version="1.1" xmlns="http://www.w3.org/2000/svg" p-id="1000" xmlns:xlink="http://www.w3.org/1999/xlink" width="200" height="200"><defs><style type="text/css"></style></defs><path d="M565.6 703.4c-22.6 26-47.8 47-75.6 62.6-28 15.8-56 23.6-84 23.6-30.8 0-60.8-9-90-27-29.2-18-52.8-45.8-71-83.2-18.2-37.4-27.4-78.6-27.4-123.2 0-55.2 14.2-110.4 42.4-165.6 28.2-55.4 63.4-96.8 105.4-124.6 42-27.8 82.8-41.6 122.2-41.6 30.2 0 59 7.8 86.4 23.6 27.4 15.8 51 39.8 70.8 72l17.6-80.6 93.2 0-75 349c-10.4 48.6-15.6 75.4-15.6 80.6 0 9.4 3.6 17.4 10.6 24.2 7.2 6.8 15.6 10.2 25.8 10.2 18.4 0 42.4-10.6 72.4-31.8 39.6-27.8 70.8-65 94-111.6 23-46.6 34.6-94.8 34.6-144.4 0-58-14.8-112-44.4-162.4-29.6-50.2-73.8-90.6-132.6-120.6-58.8-30.2-123.8-45.2-194.8-45.2-81.2 0-155.2 19-222.4 57-67.2 38-119.2 92.4-156 163.4C114.8 378.8 96.4 454.8 96.4 536c0 85 18.4 158.2 55.4 219.6 37 61.4 90.4 106.8 160.2 136 69.8 29.4 147.4 44 232.2 44 90.8 0 167-15.2 228.4-45.8 61.4-30.6 107.4-67.6 137.8-111.4l94.2 0c-17.6 36.4-48 73.6-91 111.4-43 37.8-94.2 67.8-153.4 89.8-59.4 22-130.8 33-214.4 33-77 0-148-9.8-213-29.6-65-19.8-120.4-49.6-166.2-89.2-45.8-39.8-80.2-85.4-103.6-137C34 691 19.4 620.2 19.4 544.2c0-84.6 17.4-165.2 52-242 42.4-94 102.4-166 180.2-215.8 77.8-50 172.2-75 283.2-75 86 0 163.2 17.6 231.8 52.8 68.4 35.2 122.6 87.6 162 157.4 33.6 60 50.4 125.2 50.4 195.6 0 100.6-35.4 189.8-106.2 268-63.2 70-132.2 105-207 105-24 0-43.2-3.6-58-11-14.8-7.2-25.6-17.6-32.6-31.2C571 739.6 567.6 724.6 565.6 703.4zM313.8 562.4c0 47.6 11.2 84.4 33.8 110.8 22.6 26.4 48.4 39.6 77.6 39.6 19.4 0 39.8-5.8 61.4-17.4 21.6-11.6 42-28.8 61.6-51.8 19.6-22.8 35.6-52 48.2-87.2 12.4-35.2 18.8-70.4 18.8-105.8 0-47.2-11.8-83.8-35.2-109.8-23.4-26-52-39-85.6-39-22.2 0-43 5.6-62.6 17-19.6 11.2-38.6 29.4-57 54.4-18.4 25-33.2 55.4-44.2 91C319.4 499.8 313.8 532.6 313.8 562.4z" p-id="1001" fill="#ffffff"></path></svg>