<?xml version="1.0" standalone="no"?><!DOCTYPE svg PUBLIC "-//W3C//DTD SVG 1.1//EN" "http://www.w3.org/Graphics/SVG/1.1/DTD/svg11.dtd"><svg t="1497188755347" class="icon" style="" viewBox="0 0 1092 1024" version="1.1" xmlns="http://www.w3.org/2000/svg" p-id="1007" xmlns:xlink="http://www.w3.org/1999/xlink" width="213.28125" height="200"><defs><style type="text/css"></style></defs><path d="M541.981708 1010.863998C266.855446 1010.863998 43.786673 787.795225 43.786673 512.668963S266.855446 14.473928 541.981708 14.473928s498.195035 223.068773 498.195035 498.195035-223.068773 498.195035-498.195035 498.195035z m0-943.967692C295.803302 66.896306 96.209051 266.490557 96.209051 512.668963S295.803302 958.44162 541.981708 958.44162s445.772657-199.594251 445.772657-445.772657S788.160114 66.896306 541.981708 66.896306zM746.806034 407.824207H337.157382c-2.797482 0-4.986816-2.189334-4.986815-4.986815v-42.448747c0-2.797482 2.189334-4.986816 4.986815-4.986816H746.806034c2.797482 0 4.986816 2.189334 4.986816 4.986816v42.448747c0 2.675852-2.310963 4.986816-4.986816 4.986815z m-409.648652 104.844756h252.259888c2.797482 0 4.986816 2.189334 4.986816 4.986816v42.448746c0 2.797482-2.189334 4.986816-4.986816 4.986816H337.157382c-2.797482 0-4.986816-2.189334-4.986815-4.986816v-42.448746c0-2.797482 2.310963-4.986816 4.986815-4.986816z m0 157.267134h147.415133c2.797482 0 4.986816 2.189334 4.986815 4.986815v42.448747c0 2.797482-2.189334 4.986816-4.986815 4.986816H337.157382c-2.797482 0-4.986816-2.189334-4.986815-4.986816v-42.448747c0-2.675852 2.310963-4.986816 4.986815-4.986815z" p-id="1008" fill="#8a8a8a"></path></svg>