<?xml version="1.0" standalone="no"?><!DOCTYPE svg PUBLIC "-//W3C//DTD SVG 1.1//EN" "http://www.w3.org/Graphics/SVG/1.1/DTD/svg11.dtd"><svg t="1496578186163" class="icon" style="" viewBox="0 0 1024 1024" version="1.1" xmlns="http://www.w3.org/2000/svg" p-id="10263" xmlns:xlink="http://www.w3.org/1999/xlink" width="200" height="200"><defs><style type="text/css"></style></defs><path d="M295.936 915.456L14.848 1009.152l93.696-280.576z" p-id="10264" fill="#e6e6e6"></path><path d="M14.848 1024c-3.584 0-7.68-1.536-10.24-4.096-4.096-4.096-5.12-9.728-3.584-14.848l93.696-281.088c1.536-4.608 5.632-8.704 10.752-9.728 5.12-1.024 10.24 0.512 13.824 4.096l187.392 187.392c3.584 3.584 5.12 8.704 4.096 13.824-1.024 5.12-4.608 9.216-9.728 10.752l-281.6 93.184c-1.536 0.512-3.072 0.512-4.608 0.512z m99.84-268.288l-76.8 230.4 230.4-76.8-153.6-153.6zM736.8192 99.61984l187.17184 187.17184L341.10976 869.67296 153.93792 682.496z" p-id="10265" fill="#e6e6e6"></path><path d="M341.504 884.736c-3.584 0-7.68-1.536-10.24-4.096l-187.392-187.392c-2.56-2.56-4.096-6.656-4.096-10.24 0-4.096 1.536-7.68 4.096-10.24L726.528 89.6c5.632-5.632 15.36-5.632 20.992 0L934.4 276.48c5.632 5.632 5.632 14.848 0 20.992L351.744 880.128c-2.56 3.072-6.656 4.608-10.24 4.608z m-166.4-202.24l166.4 166.4L903.68 287.232 737.28 120.832 175.104 682.496z" p-id="10266" fill="#e6e6e6"></path><path d="M970.752 240.64c51.712-51.712 51.712-135.68 0-187.392C919.04 1.536 835.072 1.536 783.36 53.248l-4.608 4.608 187.392 187.392 4.608-4.608z" p-id="10267" fill="#e6e6e6"></path><path d="M965.632 260.096c-4.096 0-7.68-1.536-10.24-4.096L768 68.608c-5.632-5.632-5.632-14.848 0-20.992l4.608-4.608C800.768 15.36 837.632 0 877.056 0s76.288 15.36 103.936 43.008c57.344 57.344 57.344 150.528 0 208.384l-4.608 4.608c-3.072 2.56-6.656 4.096-10.752 4.096z m-165.888-201.728l165.888 165.888c40.448-46.08 38.4-116.736-5.632-160.768-22.016-22.016-51.712-34.304-83.456-34.304-28.16 0-55.808 10.24-76.8 29.184z" p-id="10268" fill="#e6e6e6"></path></svg>