<?xml version="1.0" standalone="no"?><!DOCTYPE svg PUBLIC "-//W3C//DTD SVG 1.1//EN" "http://www.w3.org/Graphics/SVG/1.1/DTD/svg11.dtd"><svg t="1497163004032" class="icon" style="" viewBox="0 0 1024 1024" version="1.1" xmlns="http://www.w3.org/2000/svg" p-id="5239" xmlns:xlink="http://www.w3.org/1999/xlink" width="200" height="200"><defs><style type="text/css"></style></defs><path d="M288.970926 383.718335c-30.774911 0-55.763025 25.882484-55.763025 57.840336 0 31.94148 24.988114 57.823963 55.763025 57.823963 30.817889 0 55.762001-25.882484 55.762001-57.823963C344.732927 409.600819 319.788815 383.718335 288.970926 383.718335L288.970926 383.718335 288.970926 383.718335zM512.019954 383.718335c-30.817889 0-55.762001 25.882484-55.762001 57.840336 0 31.94148 24.944112 57.823963 55.762001 57.823963 30.774911 0 55.719023-25.882484 55.719023-57.823963C567.74 409.600819 542.795888 383.718335 512.019954 383.718335L512.019954 383.718335 512.019954 383.718335zM735.028051 383.718335c-30.773887 0-55.762001 25.882484-55.762001 57.840336 0 31.94148 24.988114 57.823963 55.762001 57.823963 30.774911 0 55.762001-25.882484 55.762001-57.823963C790.790052 409.600819 765.802962 383.718335 735.028051 383.718335L735.028051 383.718335 735.028051 383.718335zM846.552054 94.532003 177.487855 94.532003c-61.5928 0-111.524003 51.79976-111.524003 115.690906l0 433.766195c0 63.872726 51.027164 122.747625 114.02394 122.747625l169.962973 0c29.590945 31.56388 152.206564 158.475338 152.206564 158.475338 5.436826 5.67321 14.247492 5.67321 19.683295 0 0 0 89.781816-101.749382 148.262742-158.475338l173.907818 0c62.996776 0 114.02394-58.874899 114.02394-122.747625L958.035124 210.222909C958.035124 146.331763 908.102898 94.532003 846.552054 94.532003L846.552054 94.532003 846.552054 94.532003zM902.2721 643.989103c0 31.931247-26.78504 65.450664-58.260915 65.450664l-171.014932 0c-20.735253 0-39.367613 21.279652-39.367613 21.279652L513.554914 855.290577 393.482211 730.718397c0 0-22.840194-21.279652-42.435485-21.279652L179.987792 709.438745c-31.476899 0-58.261938-33.519418-58.261938-65.450664L121.725854 210.222909c0-31.957853 24.944112-57.840336 55.762001-57.840336l669.064198 0c30.774911 0 55.719023 25.882484 55.719023 57.840336L902.271076 643.989103 902.2721 643.989103 902.2721 643.989103zM902.2721 643.989103" p-id="5240" fill="#666"></path></svg>