<?xml version="1.0" standalone="no"?><!DOCTYPE svg PUBLIC "-//W3C//DTD SVG 1.1//EN" "http://www.w3.org/Graphics/SVG/1.1/DTD/svg11.dtd"><svg t="1497683359618" class="icon" style="" viewBox="0 0 1024 1024" version="1.1" xmlns="http://www.w3.org/2000/svg" p-id="1533" xmlns:xlink="http://www.w3.org/1999/xlink" width="200" height="200"><defs><style type="text/css"></style></defs><path d="M991.209739 452.518957c-21.214609-8.726261-45.033739-4.029217-60.883478 11.909565l-152.153043 153.35513c-2.226087 2.248348-5.654261 3.361391-9.216 2.916174-1.558261-0.178087-5.409391-0.979478-7.43513-4.36313l-182.895304-304.417391c-2.137043-3.561739-4.919652-6.433391-7.501913-9.505391 40.002783-21.25913 67.33913-63.332174 67.33913-111.705043 0-69.721043-56.720696-126.441739-126.419478-126.441739-69.721043 0-126.441739 56.720696-126.441739 126.441739 0 49.085217 28.182261 91.625739 69.12 112.573217-2.626783 3.250087-5.097739 6.678261-7.212522 10.418087l-171.319652 302.881391c-1.869913 3.33913-5.609739 4.229565-7.145739 4.474435-3.584 0.512-7.101217-0.467478-9.438609-2.693565l-167.090087-158.319304c-16.094609-15.226435-39.824696-19.322435-60.527304-10.418087C12.243478 458.061913 0 476.226783 0.022261 498.109217l21.392696 409.689043c0.022261 28.627478 24.397913 51.934609 54.294261 51.934609l619.965217 0c12.288 0 22.26087-9.97287 22.26087-22.26087s-9.97287-22.26087-22.26087-22.26087L75.731478 915.21113c-5.298087 0-9.772522-3.405913-9.817043-8.592696l-5.542957-106.206609 903.501913 0-5.565217 107.341913c0 4.051478-4.474435 7.457391-9.750261 7.457391l-55.852522 0c-12.288 0-22.26087 9.97287-22.26087 22.26087s9.97287 22.26087 22.26087 22.26087l55.852522 0c29.94087 0 54.272-23.30713 54.249739-50.821565L1024 500.224C1023.977739 479.120696 1011.422609 460.844522 991.209739 452.518957zM430.08 190.686609c0-45.167304 36.752696-81.92 81.92-81.92 45.167304 0 81.897739 36.752696 81.897739 81.92 0 45.167304-36.730435 81.92-81.897739 81.92C466.832696 272.62887 430.08 235.876174 430.08 190.686609zM59.213913 778.150957 44.521739 496.951652c0-3.561739 2.760348-5.498435 5.053217-6.500174 3.428174-1.446957 8.45913-1.80313 12.310261 1.847652l167.090087 158.319304c12.421565 11.753739 29.45113 16.962783 46.681043 14.402783 16.851478-2.537739 31.165217-12.243478 39.290435-26.601739l171.297391-302.85913c5.565217-9.817043 15.60487-15.760696 26.89113-15.916522 10.907826-0.022261 21.392696 5.38713 27.314087 15.204174l182.895304 304.39513c8.548174 14.246957 23.240348 23.596522 40.269913 25.644522 17.452522 2.159304 34.170435-3.673043 46.169043-15.760696l152.153043-153.33287c4.786087-4.87513 11.108174-2.626783 12.332522-2.114783 2.381913 0.979478 5.209043 2.916174 5.253565 5.409391l-14.469565 279.062261L59.213913 778.150957z" p-id="1534" fill="#1296db"></path></svg>