<?xml version="1.0" standalone="no"?><!DOCTYPE svg PUBLIC "-//W3C//DTD SVG 1.1//EN" "http://www.w3.org/Graphics/SVG/1.1/DTD/svg11.dtd"><svg t="1496571119100" class="icon" style="" viewBox="0 0 1024 1024" version="1.1" xmlns="http://www.w3.org/2000/svg" p-id="8862" xmlns:xlink="http://www.w3.org/1999/xlink" width="200" height="200"><defs><style type="text/css"></style></defs><path d="M386.730667 475.904c32.631467 41.6768 159.470933 119.108267 264.942933-6.826667 47.616-63.419733 73.284267-169.1136 67.652267-236.765867 3.549867-41.8304-24.490667-174.011733-143.5136-199.611733-213.4016-39.816533-252.125867 122.624-257.911467 152.439467C312.098133 214.954667 304.247467 373.384533 386.730667 475.904z" p-id="8863" fill="#717e8e"></path><path d="M214.050133 658.363733c275.6096-169.710933 583.5776-30.8736 614.741333 15.428267 32.904533 33.792 123.6992 107.690667 90.760533 322.2016-159.624533-2.9696-767.232 2.9696-813.5168 1.160533C85.589333 882.517333 93.5936 756.872533 214.050133 658.363733z" p-id="8864" fill="#717e8e"></path></svg>