<?xml version="1.0" standalone="no"?><!DOCTYPE svg PUBLIC "-//W3C//DTD SVG 1.1//EN" "http://www.w3.org/Graphics/SVG/1.1/DTD/svg11.dtd"><svg t="1496570925221" class="icon" style="" viewBox="0 0 1024 1024" version="1.1" xmlns="http://www.w3.org/2000/svg" p-id="7527" xmlns:xlink="http://www.w3.org/1999/xlink" width="200" height="200"><defs><style type="text/css"></style></defs><path d="M512.344343 23.554462c-264.009929 0-478.032374 187.277314-478.032374 418.264129 0 132.042315 70.061682 249.618151 179.264826 326.290391l0 211.508181 209.429847-127.020952c28.983101 4.753257 58.754149 7.559163 89.337701 7.559163 264.009929 0 478.032374-187.284477 478.032374-418.337807C990.375693 210.837916 776.361435 23.554462 512.344343 23.554462zM273.311271 501.620605c-32.990369 0-59.734476-26.771737-59.734476-59.794851 0-32.963763 26.744107-59.735499 59.734476-59.735499 33.023114 0 59.768245 26.771737 59.768245 59.735499C333.079516 474.848868 306.341548 501.620605 273.311271 501.620605zM512.344343 501.620605c-32.990369 0-59.766199-26.771737-59.766199-59.794851 0-32.963763 26.77583-59.735499 59.766199-59.735499 32.997532 0 59.767222 26.771737 59.767222 59.735499C572.111564 474.848868 545.341874 501.620605 512.344343 501.620605zM751.376391 501.620605c-33.023114 0-59.760059-26.771737-59.760059-59.794851 0-32.963763 26.737968-59.735499 59.760059-59.735499 32.997532 0 59.735499 26.771737 59.735499 59.735499C811.11189 474.848868 784.373922 501.620605 751.376391 501.620605z" p-id="7528" fill="#717e8e"></path></svg>