<?xml version="1.0" standalone="no"?><!DOCTYPE svg PUBLIC "-//W3C//DTD SVG 1.1//EN" "http://www.w3.org/Graphics/SVG/1.1/DTD/svg11.dtd"><svg t="1497074379710" class="icon" style="" viewBox="0 0 1024 1024" version="1.1" xmlns="http://www.w3.org/2000/svg" p-id="997" xmlns:xlink="http://www.w3.org/1999/xlink" width="200" height="200"><defs><style type="text/css"></style></defs><path d="M236.607324 667.569148c0-130.789789 106.409518-237.169631 237.145072-237.169631 130.788765 0 237.139955 106.379842 237.139955 237.169631s-106.352213 237.19726-237.139955 237.19726C343.016843 904.766408 236.607324 798.358937 236.607324 667.569148M740.644979 63.125713c-0.10847 0-0.271176 0.055259-0.491187 0.055259-0.272199 0-0.660032 0-1.042749 0.053212-0.109494 0-0.273223 0.055259-0.381693 0.055259-0.330528 0-0.655939 0.055259-1.043772 0.055259-0.106424 0-0.273223 0.054235-0.436952 0.054235-0.381693 0.055259-0.711198 0.110517-1.041726 0.164752-0.162706 0.055259-0.329505 0.1361-0.545422 0.1361-0.277316 0.109494-0.550539 0.164752-0.932232 0.164752-0.218988 0.055259-0.441045 0.164752-0.661056 0.220011-0.273223 0.055259-0.543376 0.107447-0.765433 0.216941-0.440022 0.055259-0.932232 0.220011-1.367137 0.384763l-0.058328 0-229.578746 76.490092c-16.003486 5.369288-24.712845 22.657023-19.289322 38.765909 4.275373 12.794397 16.219403 20.874423 28.984125 20.874423 3.232624 0 6.466272-0.518816 9.699919-1.587148l159.446455-53.066613L562.84348 382.64898c-28.434609-8.848529-58.409294-13.452383-89.092108-13.452383-79.668481 0-154.62566 30.957059-211.006761 87.36579-56.381102 56.326866-87.392396 131.285069-87.392396 211.006761 0 79.668481 31.011294 154.62566 87.392396 211.006761 43.064818 43.066865 97.039103 71.339792 155.664316 82.298378l110.679775 0c58.687634-10.958586 112.604614-39.231513 155.668409-82.298378 56.328913-56.382125 87.393419-131.339304 87.393419-211.006761 0-79.721693-31.064506-154.679895-87.393419-211.006761-19.780509-19.75288-41.859363-36.437887-65.587787-49.724495l116.708072-233.360885 53.203736 159.475108c4.164856 12.792351 16.166191 20.930705 28.985148 20.930705 3.179412 0 6.465249-0.521886 9.646708-1.64343 16.051581-5.260817 24.708751-22.603811 19.340487-38.657438L770.616594 84.055394c-0.216941-0.520863-0.325411-0.958838-0.603751-1.451048 0-0.110517-0.161682-0.356111-0.215918-0.576121-0.109494-0.217964-0.220011-0.493234-0.329505-0.794086-0.109494-0.220011-0.220011-0.49221-0.329505-0.713244-0.109494-0.216941-0.220011-0.436952-0.273223-0.629333-0.166799-0.274246-0.273223-0.49221-0.440022-0.822738-0.053212-0.109494-0.162706-0.300852-0.273223-0.520863-0.161682-0.216941-0.273223-0.49221-0.440022-0.710175-0.162706-0.246617-0.273223-0.357134-0.324388-0.520863-0.167822-0.275269-0.387833-0.493234-0.551562-0.794086-0.052189-0.110517-0.162706-0.330528-0.329505-0.49221-0.161682-0.165776-0.272199-0.441045-0.491187-0.605797-0.109494-0.245593-0.220011-0.409322-0.382717-0.574075-0.162706-0.218988-0.329505-0.382717-0.49221-0.547469-0.162706-0.246617-0.329505-0.411369-0.493234-0.63138-0.165776-0.162706-0.328481-0.327458-0.381693-0.49221-0.221034-0.245593-0.387833-0.410346-0.602727-0.629333-0.166799-0.164752-0.277316-0.274246-0.38681-0.384763-0.274246-0.217964-0.493234-0.466628-0.765433-0.73985-0.109494-0.055259-0.221034-0.164752-0.273223-0.274246-0.277316-0.217964-0.550539-0.437975-0.823761-0.684592-0.109494-0.054235-0.166799-0.164752-0.274246-0.274246-0.329505-0.217964-0.600681-0.437975-0.877997-0.684592-0.109494-0.109494-0.218988-0.109494-0.381693-0.218988-0.221034-0.216941-0.546446-0.437975-0.766456-0.602727-0.166799-0.109494-0.329505-0.216941-0.440022-0.272199-0.272199-0.246617-0.548492-0.411369-0.874927-0.576121-0.109494-0.109494-0.329505-0.217964-0.491187-0.327458-0.277316-0.164752-0.493234-0.301875-0.714268-0.466628-0.328481-0.220011-0.822738-0.382717-1.152243-0.547469-0.10847-0.055259-0.162706-0.109494-0.218988-0.164752-0.053212 0-0.110517 0-0.162706 0-0.381693-0.218988-0.823761-0.465604-1.205455-0.62831-0.161682-0.055259-0.440022-0.164752-0.661056-0.275269-0.215918-0.054235-0.49221-0.164752-0.707105-0.274246-0.277316-0.10847-0.550539-0.217964-0.77055-0.301875-0.220011-0.055259-0.434905-0.107447-0.655939-0.217964-0.329505-0.109494-0.549515-0.165776-0.87902-0.275269l-0.491187-0.109494c-0.326435-0.107447-0.603751-0.162706-0.986467-0.273223-0.161682-0.054235-0.328481-0.109494-0.545422-0.109494-0.277316-0.055259-0.549515-0.109494-0.821715-0.164752-0.167822-0.081864-0.387833-0.1361-0.661056-0.1361-0.272199-0.054235-0.491187-0.109494-0.763386-0.164752-0.274246 0-0.442068-0.054235-0.714268-0.054235-0.218988 0-0.491187-0.055259-0.712221-0.055259-0.329505-0.055259-0.548492-0.055259-0.821715-0.055259-0.162706-0.053212-0.382717-0.053212-0.603751-0.053212-0.329505 0-0.544399-0.055259-0.873903-0.055259L740.644979 63.127759z" p-id="998" fill="#1296db"></path></svg>