<?xml version="1.0" standalone="no"?><!DOCTYPE svg PUBLIC "-//W3C//DTD SVG 1.1//EN" "http://www.w3.org/Graphics/SVG/1.1/DTD/svg11.dtd"><svg t="1497074410239" class="icon" style="" viewBox="0 0 1024 1024" version="1.1" xmlns="http://www.w3.org/2000/svg" p-id="1696" xmlns:xlink="http://www.w3.org/1999/xlink" width="200" height="200"><defs><style type="text/css"></style></defs><path d="M609.70496 763.691008c193.20832 0 349.845504-156.638208 349.845504-349.845504 0-193.221632-156.637184-349.845504-349.845504-349.845504-193.220608 0-349.845504 156.623872-349.845504 349.845504 0 86.162432 31.168512 165.036032 82.82112 226.003968L231.370752 751.845376 113.0752 632.429568c-10.932224-10.932224-28.643328-10.932224-39.575552 0-10.933248 10.934272-10.933248 28.644352 0 39.5776l118.416384 119.535616L72.651776 911.541248c-10.933248 10.932224-10.933248 28.657664 0 39.575552 10.932224 10.932224 28.65664 10.932224 39.589888 0l119.067648-119.805952 119.359488 120.489984c10.933248 10.932224 28.644352 10.932224 39.576576 0 10.932224-10.934272 10.932224-28.657664 0-39.575552L270.764032 791.611392l111.373312-112.064512C443.314176 731.993088 522.8032 763.691008 609.70496 763.691008zM609.70496 119.510016c162.55488 0 294.335488 131.779584 294.335488 294.335488 0 162.555904-131.779584 294.334464-294.335488 294.334464S315.369472 576.401408 315.369472 413.845504C315.369472 251.2896 447.15008 119.510016 609.70496 119.510016z" p-id="1697" fill="#d4237a"></path></svg>