<?xml version="1.0" standalone="no"?><!DOCTYPE svg PUBLIC "-//W3C//DTD SVG 1.1//EN" "http://www.w3.org/Graphics/SVG/1.1/DTD/svg11.dtd"><svg t="1495655755039" class="icon" style="" viewBox="0 0 1024 1024" version="1.1" xmlns="http://www.w3.org/2000/svg" p-id="1078" xmlns:xlink="http://www.w3.org/1999/xlink" width="200" height="200"><defs><style type="text/css"></style></defs><path d="M519.221 546.818c133.241 0 241.255-108.016 241.255-241.257S652.463 64.305 519.221 64.305 277.966 172.32 277.966 305.561 385.98 546.818 519.221 546.818z m0-442.303c111.034 0 201.046 90.012 201.046 201.046 0 111.036-90.012 201.046-201.046 201.046-111.036 0-201.046-90.01-201.046-201.046 0-111.034 90.011-201.046 201.046-201.046z m190.992 502.617c-121.042-61.357-264.822-62.161-402.09 0C186.281 662.305 86.97 888.597 86.97 888.597v40.209h40.209v-40.209S231.49 690.148 308.123 647.342c99.747-55.722 304.511-56.635 402.09 0 73.324 39.041 180.942 241.255 180.942 241.255v40.209h40.209v-40.209S807.055 656.222 710.213 607.132z" p-id="1079"></path></svg>