<?xml version="1.0" standalone="no"?><!DOCTYPE svg PUBLIC "-//W3C//DTD SVG 1.1//EN" "http://www.w3.org/Graphics/SVG/1.1/DTD/svg11.dtd"><svg t="1497188854765" class="icon" style="" viewBox="0 0 1024 1024" version="1.1" xmlns="http://www.w3.org/2000/svg" p-id="2737" xmlns:xlink="http://www.w3.org/1999/xlink" width="200" height="200"><defs><style type="text/css"></style></defs><path d="M682.666667 341.333333m-85.333334 0a85.333333 85.333333 0 1 0 170.666667 0 85.333333 85.333333 0 1 0-170.666667 0Z" p-id="2738" fill="#8a8a8a"></path><path d="M512 341.333333c25.6 0 42.666667-17.066667 42.666667-42.666666s-17.066667-42.666667-42.666667-42.666667c-140.8 0-256 115.2-256 256s115.2 256 256 256 256-115.2 256-256c0-25.6-17.066667-42.666667-42.666667-42.666667s-42.666667 17.066667-42.666666 42.666667c0 93.866667-76.8 170.666667-170.666667 170.666667s-170.666667-76.8-170.666667-170.666667 76.8-170.666667 170.666667-170.666667z" p-id="2739" fill="#8a8a8a"></path><path d="M512 0C422.4 0 332.8 25.6 256 68.266667c-21.333333 12.8-25.6 38.4-17.066667 59.733333 12.8 21.333333 38.4 25.6 59.733334 12.8C362.666667 106.666667 435.2 85.333333 512 85.333333c234.666667 0 426.666667 192 426.666667 426.666667s-192 426.666667-426.666667 426.666667S85.333333 746.666667 85.333333 512c0-76.8 21.333333-149.333333 55.466667-213.333333 12.8-21.333333 4.266667-46.933333-12.8-59.733334s-46.933333-4.266667-59.733333 17.066667C25.6 332.8 0 422.4 0 512c0 281.6 230.4 512 512 512s512-230.4 512-512S793.6 0 512 0z" p-id="2740" fill="#8a8a8a"></path></svg>