<?xml version="1.0" standalone="no"?><!DOCTYPE svg PUBLIC "-//W3C//DTD SVG 1.1//EN" "http://www.w3.org/Graphics/SVG/1.1/DTD/svg11.dtd"><svg t="1495655784011" class="icon" style="" viewBox="0 0 1024 1024" version="1.1" xmlns="http://www.w3.org/2000/svg" p-id="1564" xmlns:xlink="http://www.w3.org/1999/xlink" width="200" height="200"><defs><style type="text/css"></style></defs><path d="M538.635 418.092h-59.712c-49.468 0-89.569 41.13-89.569 91.867 0 50.735 40.101 91.865 89.569 91.865h59.712c49.468 0 89.569-41.13 89.569-91.865 0-50.737-40.101-91.867-89.569-91.867z m-2.297 146.986h-55.119c-30.44 0-55.117-24.679-55.117-55.119 0-30.442 24.677-55.121 55.117-55.121h55.119c30.442 0 55.121 24.679 55.121 55.121 0 30.441-24.678 55.119-55.121 55.119z m321.531-165.357H820.65c-13.68-38.699-34.349-74.092-60.505-104.658l23.244-40.259c25.368-43.939 10.313-100.122-33.626-125.49l-31.822-18.373C674 85.573 617.817 100.626 592.448 144.565l-23.215 40.209a332.548 332.548 0 0 0-60.454-5.532c-20.649 0-40.85 1.91-60.451 5.531l-23.214-40.209c-25.37-43.939-81.552-58.992-125.492-33.625L267.8 129.314c-43.939 25.368-58.994 81.551-33.626 125.49l23.242 40.257c-26.157 30.567-46.827 65.96-60.507 104.66h-37.216c-50.735 0-91.865 41.13-91.865 91.865v36.746c0 50.735 41.13 91.865 91.865 91.865h37.216c13.68 38.7 34.35 74.093 60.508 104.66l-23.243 40.258c-25.368 43.939-10.313 100.122 33.626 125.49l31.822 18.373c43.939 25.368 100.122 10.315 125.492-33.625l23.215-40.21a332.504 332.504 0 0 0 60.45 5.531c20.65 0 40.852-1.91 60.453-5.532l23.216 40.211c25.37 43.939 81.552 58.992 125.492 33.625l31.822-18.373c43.939-25.368 58.994-81.551 33.626-125.49l-23.244-40.26c26.156-30.566 46.826-65.958 60.505-104.658h37.219c50.735 0 91.865-41.13 91.865-91.865v-36.746c0.001-50.735-41.129-91.865-91.864-91.865z m0 183.731h-64.383c-13.523 52.541-41.217 99.387-78.751 136.248l27.642 47.878c20.295 35.149 8.251 80.097-26.9 100.392-35.151 20.293-80.097 8.25-100.392-26.9l-27.602-47.808c-25.051 6.945-51.442 10.667-78.704 10.667-27.261 0-53.651-3.722-78.701-10.667l-27.602 47.808c-20.295 35.15-65.241 47.193-100.392 26.9-35.151-20.295-47.195-65.243-26.9-100.392l27.641-47.876c-37.535-36.861-65.23-83.707-78.753-136.249h-46.006c-40.588 0-73.492-32.904-73.492-73.492s32.904-73.492 73.492-73.492h46.006c13.523-52.542 41.219-99.389 78.753-136.25l-27.641-47.876c-20.295-35.149-8.251-80.097 26.9-100.392 35.151-20.293 80.097-8.249 100.392 26.9l27.602 47.808c25.05-6.944 51.44-10.666 78.701-10.666 27.262 0 53.653 3.723 78.704 10.667l27.602-47.808c20.295-35.149 65.241-47.193 100.392-26.9 35.151 20.295 47.195 65.243 26.9 100.392l-27.642 47.878c37.533 36.861 65.228 83.706 78.751 136.248h64.383c40.588 0 55.119 32.904 55.119 73.492s-14.531 73.49-55.119 73.49z" p-id="1565"></path></svg>