<?xml version="1.0" standalone="no"?><!DOCTYPE svg PUBLIC "-//W3C//DTD SVG 1.1//EN" "http://www.w3.org/Graphics/SVG/1.1/DTD/svg11.dtd"><svg t="1496571857587" class="icon" style="" viewBox="0 0 1024 1024" version="1.1" xmlns="http://www.w3.org/2000/svg" p-id="9529" xmlns:xlink="http://www.w3.org/1999/xlink" width="200" height="200"><defs><style type="text/css"></style></defs><path d="M940.032 461.824q45.056 53.248 1.024 102.4l-317.44 318.464q-10.24 8.192-22.016 11.776t-24.064 2.56-23.04-5.12-17.92-11.264q-114.688-114.688-204.8-205.824l-75.776-76.8q-37.888-36.864-67.072-66.56t-47.616-48.128l-19.456-19.456q-2.048-2.048-6.656-8.704t-9.728-17.408-9.216-24.064-4.096-28.672l0-18.432q0-14.336 0.512-35.84t1.024-47.104 0.512-52.224q1.024-62.464 2.048-138.24 2.048-12.288 4.608-24.576t12.8-23.552q10.24-10.24 23.04-13.824t23.04-3.584l311.296 0q2.048-1.024 14.336-0.512t15.36 2.56q6.144 2.048 13.824 7.168t12.8 10.24zM241.664 236.544q26.624 0 45.056-18.432t18.432-45.056-18.432-45.056-45.056-18.432-45.568 18.432-18.944 45.056 18.944 45.056 45.568 18.432z" p-id="9530" fill="#6991ab"></path></svg>