<?xml version="1.0" standalone="no"?><!DOCTYPE svg PUBLIC "-//W3C//DTD SVG 1.1//EN" "http://www.w3.org/Graphics/SVG/1.1/DTD/svg11.dtd"><svg t="1497188866655" class="icon" style="" viewBox="0 0 1024 1024" version="1.1" xmlns="http://www.w3.org/2000/svg" p-id="3413" xmlns:xlink="http://www.w3.org/1999/xlink" width="200" height="200"><defs><style type="text/css"></style></defs><path d="M92.194133 1020.5184c0 0 1.706667 0.546133 4.437333 0.7168-1.7408-0.3072-3.515733-0.7168-5.358933-1.262933C91.648 1020.2112 91.818667 1020.416 92.194133 1020.5184z" p-id="3414" fill="#8a8a8a"></path><path d="M761.924267 172.714667c-3.345067-3.1744-7.816533-5.188267-12.834133-5.188267-10.4448 0-18.944 8.4992-18.944 18.909867 0 8.055467 5.085867 14.848 12.151467 17.578667 121.685333 75.400533 202.6496 206.779733 202.6496 356.7616 0 234.3936-196.778667 424.3456-439.466667 424.3456-242.722133 0-439.5008-189.917867-439.5008-424.3456 0-156.808533 88.3712-293.410133 219.409067-366.865067 0-0.170667-0.034133-0.375467-0.068267-0.580267 6.9632-2.628267 11.9808-9.216 11.9808-17.066667 0-10.1376-8.226133-18.397867-18.363733-18.397867-1.604267 0-7.7824 1.9456-8.260267 2.184533-144.6912 79.189333-242.688 228.693333-242.688 400.725333 0 254.600533 213.777067 461.038933 477.4912 461.038933 263.68 0 477.4912-206.4384 477.4912-461.038933C982.971733 397.482667 894.634667 254.5664 761.924267 172.714667z" p-id="3415" fill="#8a8a8a"></path><path d="M512 566.033067c-11.6736 0-21.162667-10.615467-21.162667-23.6544L490.837333 30.071467c0-13.1072 9.454933-23.688533 21.162667-23.688533l0 0c11.707733 0 21.162667 10.615467 21.162667 23.688533L533.162667 542.378667C533.162667 555.4176 523.707733 566.033067 512 566.033067L512 566.033067z" p-id="3416" fill="#8a8a8a"></path></svg>