<?xml version="1.0" standalone="no"?><!DOCTYPE svg PUBLIC "-//W3C//DTD SVG 1.1//EN" "http://www.w3.org/Graphics/SVG/1.1/DTD/svg11.dtd"><svg t="1496641219153" class="icon" style="" viewBox="0 0 1024 1024" version="1.1" xmlns="http://www.w3.org/2000/svg" p-id="1735" xmlns:xlink="http://www.w3.org/1999/xlink" width="200" height="200" fill="#fff"><defs><style type="text/css"></style></defs><path d="M324.16229 528.25007c111.918775-15.513291 198.101451-111.540153 198.101451-227.695407C522.273974 173.521685 419.329576 70.607987 292.296598 70.607987S62.319223 173.521685 62.319223 300.554663c0 116.175721 86.192909 212.182116 198.152616 227.695407l0 110.721509L111.560619 638.971579l0 63.58812 148.91122 0 0 148.993085 63.639285 0L324.111124 702.610865l148.941919 0 0-63.58812-148.890754 0L324.16229 528.25007zM292.388696 466.841588c-0.030699 0-0.061398 0-0.092097 0l0 0.010233c-91.837455 0-166.286925-74.44947-166.286925-166.286925s74.44947-166.286925 166.286925-166.286925 166.286925 74.44947 166.286925 166.286925C458.606036 392.374721 384.198521 466.819075 292.388696 466.841588z" p-id="1736"></path><path d="M762.259264 423.320462l-0.10233-233.313347 60.814966 60.866131 45.025383-45.025383L762.054603 100.027981l-31.865691-31.824759L592.6466 205.888796l45.025383 44.953751 60.866131-60.917296 0.10233 233.313347C586.598873 438.884918 500.416197 534.942479 500.416197 651.1182 500.508294 778.151177 603.503857 881.064876 730.588 881.064876s229.92621-103.046728 229.875045-230.069473C960.41188 534.788983 874.167806 438.843986 762.259264 423.320462zM730.510229 817.353959c-91.825175 0.014326-166.283855-74.406492-166.311484-166.23576-0.028653-91.837455 74.398305-166.309438 166.23576-166.33809 91.841548-0.10233 166.286925 74.343047 166.33809 166.184594C896.82376 742.798065 822.391686 817.289491 730.510229 817.353959z" p-id="1737"></path></svg>