<?xml version="1.0" standalone="no"?><!DOCTYPE svg PUBLIC "-//W3C//DTD SVG 1.1//EN" "http://www.w3.org/Graphics/SVG/1.1/DTD/svg11.dtd"><svg t="1497161336245" class="icon" style="" viewBox="0 0 1024 1024" version="1.1" xmlns="http://www.w3.org/2000/svg" p-id="4442" xmlns:xlink="http://www.w3.org/1999/xlink" width="200" height="200"><defs><style type="text/css"></style></defs><path d="M677.940356 285.509592l-36.640502 53.295833c73.093738 28.457122 124.896568 99.510388 124.896568 182.670389 0 79.469959-47.305399 147.891282-115.292839 178.64061l33.023114 54.492078c86.234013-42.133609 145.638985-130.690528 145.638985-233.132688C829.565682 416.679028 767.400854 326.411141 677.940356 285.509592z" p-id="4443" fill="#e6e6e6"></path><path d="M781.157159 135.375224l-36.95875 53.757345c125.46348 63.452147 211.483622 193.561437 211.483622 343.766414 0 146.021701-81.293491 273.053909-201.089901 338.314239l33.577746 55.406914c138.475841-76.655867 232.234225-224.236064 232.234225-393.72013C1020.404102 360.569102 923.471422 210.881918 781.157159 135.375224z" p-id="4444" fill="#e6e6e6"></path><path d="M490.851331 67.202565l-233.057987 233.057987L46.053895 300.260551c0 0-42.506093 0.674359-42.506093 42.506093 0 41.831734 0 359.739201 0 359.739201s0.038886 42.467207 42.675962 42.467207c42.638099 0 211.653491 0 211.653491 0l232.973052 233.142921c0 0 63.572898 0.340761 63.572898-40.249703 0 0 0-816.171628 0-828.323389S554.040489 67.202565 490.851331 67.202565zM278.856056 681.527045c0 0-169.357176 0-190.675714 0-21.318538 0-20.977777-20.977777-20.977777-20.977777s0-254.120698 0-275.269367c0-21.148669 20.806885-21.318538 20.806885-21.318538l190.846606 0 211.653491-211.653491 0.298805 741.086535L278.856056 681.527045z" p-id="4445" fill="#e6e6e6"></path></svg>