<?xml version="1.0" standalone="no"?><!DOCTYPE svg PUBLIC "-//W3C//DTD SVG 1.1//EN" "http://www.w3.org/Graphics/SVG/1.1/DTD/svg11.dtd"><svg t="1497601329500" class="icon" style="" viewBox="0 0 1024 1024" version="1.1" xmlns="http://www.w3.org/2000/svg" p-id="1107" xmlns:xlink="http://www.w3.org/1999/xlink" width="200" height="200"><defs><style type="text/css"></style></defs><path d="M1023.268 511.625C1023.268 229.063 794.205 0 511.644 0 229.083 0 0.021 229.062 0.021 511.624s229.062 511.623 511.623 511.623C794.205 1023.247 1023.268 794.186 1023.268 511.625zM927.339 511.626c0 229.581-186.114 415.693-415.695 415.693S95.95 741.205 95.95 511.625c0-229.581 186.112-415.694 415.693-415.694C741.226 95.931 927.339 282.045 927.339 511.626zM447.525 662.959l127.928 0 0 140.326L447.525 803.285 447.525 662.959zM447.525 219.962l127.928 0 0 389.379L447.525 609.341 447.525 219.962z" p-id="1108" fill="#666"></path></svg>