<?xml version="1.0" standalone="no"?><!DOCTYPE svg PUBLIC "-//W3C//DTD SVG 1.1//EN" "http://www.w3.org/Graphics/SVG/1.1/DTD/svg11.dtd"><svg t="1495655795524" class="icon" style="" viewBox="0 0 1024 1024" version="1.1" xmlns="http://www.w3.org/2000/svg" p-id="1924" xmlns:xlink="http://www.w3.org/1999/xlink" width="200" height="200"><defs><style type="text/css"></style></defs><path d="M718.874 515.336H532.72V347.798c0-10.281-8.334-18.615-18.615-18.615-10.281 0-18.615 8.334-18.615 18.615v167.539H309.336c-10.281 0-18.617 8.334-18.617 18.615 0 10.281 8.336 18.617 18.617 18.617H495.49v204.768c0 10.281 8.334 18.615 18.615 18.615 10.281 0 18.615-8.334 18.615-18.615V552.569h186.154c10.279 0 18.615-8.336 18.615-18.617 0.001-10.282-8.335-18.616-18.615-18.616zM588.565 143.028H439.642c-205.62 0-372.308 166.688-372.308 372.308v55.846c0 205.62 166.688 372.308 372.308 372.308h148.923c205.62 0 372.308-166.688 372.308-372.308v-55.846c0-205.62-166.688-372.308-372.308-372.308z m-27.923 763.231h-93.077c-200.479 0-363-162.52-363-363 0-200.479 162.522-363 363-363h93.077c200.48 0 363 162.522 363 363 0 200.481-162.52 363-363 363z" p-id="1925"></path></svg>